The Beyond (1981)_720p.mkv
Format : Matroska
File size : 4.95 GiB
Duration : 1h 27mn
Overall bit rate : 8 111 Kbps
Encoded date : UTC 2011-10-06 15:39:40
Writing application : mkvmerge v4.8.0 ('I Got The...') built on

Video
ID : 1
Format : AVC
Format/Info : Advanced Video Codec
Format profile : High@L4.0
Format settings, CABAC : Yes
Format settings, ReFrames : 12 frames
Muxing mode : Container profile=Unknown@4.0
Codec ID : V_MPEG4/ISO/AVC
Duration : 1h 27mn
Bit rate : 6 440 Kbps
Nominal bit rate : 6 600 Kbps
Width : 1 280 pixels
Height : 542 pixels
Display aspect ratio : 2.35:1
Frame rate mode : Constant
Frame rate : 23.976 fps
Resolution : 8 bits
Colorimetry : 4:2:0
Scan type : Progressive
Bits/(Pixel*Frame) : 0.387
Stream size : 3.93 GiB (79%)
Writing library : x264 core 115 r2008 4c552d8
Encoding settings : cabac=1 / ref=12 / deblock=1:-3:-3 /

analyse=0x3:0x133 / me=umh / subme=10 / psy=1 / psy_rd=1.00:0.00 /

mixed_ref=1 / me_range=64 / chroma_me=1 / trellis=2 / 8x8dct=1 / cqm=0 /

deadzone=21,11 / fast_pskip=0 / chroma_qp_offset=-2 / threads=6 /

sliced_threads=0 / nr=0 / decimate=1 / interlaced=0 / bluray_compat=0 /

constrained_intra=0 / bframes=7 / b_pyramid=2 / b_adapt=2 / b_bias=0 /

direct=3 / weightb=1 / open_gop=0 / weightp=2 / keyint=250 / keyint_min=23 /

scenecut=40 / intra_refresh=0 / rc_lookahead=60 / rc=2pass / mbtree=1 /

bitrate=6600 / ratetol=1.0 / qcomp=0.60 / qpmin=0 / qpmax=69 / qpstep=4 /

cplxblur=20.0 / qblur=0.5 / ip_ratio=1.40 / aq=1:0.80

Audio
ID : 2
Format : DTS
Format/Info : Digital Theater Systems
Codec ID : A_DTS
Duration : 1h 27mn
Bit rate mode : Constant
Bit rate : 1 510 Kbps
Channel(s) : 6 channels
Channel positions : Front: L C R, Surround: L R, LFE
Sampling rate : 48.0 KHz
Resolution : 24 bits
Stream size : 944 MiB (19%)

Text
ID : 3
Format : VobSub
Codec ID : S_VOBSUB
Codec ID/Info : The same subtitle format used on DVDs
Forced: No